# Blender v2.75 (sub 0) OBJ File: 'axis_cube3.blend'
# www.blender.org
mtllib axis_cube3.mtl
o Cube_Cube.001
v 0.834116 0.855273 2.110972
v 0.834116 0.855273 1.110972
v 1.834116 0.855273 1.110972
v 1.834116 0.855273 2.110972
v 0.834116 1.855273 2.110972
v 1.834116 1.855273 2.110972
v 1.834116 1.855273 1.110972
v 0.834116 1.855273 1.110972
vt 0.522803 0.411549
vt 0.319587 0.411549
vt 0.319587 0.208333
vt 0.522803 0.208333
vt 0.278502 0.408298
vt 0.063246 0.408298
vt 0.063246 0.193042
vt 0.278502 0.193042
vt 0.278197 0.756570
vt 0.278197 0.973534
vt 0.061233 0.973534
vt 0.061233 0.756570
vt 0.530323 0.461942
vt 0.530323 0.687666
vt 0.304599 0.687666
vt 0.304599 0.461942
vt 0.322530 0.966729
vt 0.322530 0.752712
vt 0.536548 0.752712
vt 0.536548 0.966729
vt 0.058899 0.681508
vt 0.058899 0.476101
vt 0.264306 0.476101
vt 0.264306 0.681508
vn 0.000000 -1.000000 -0.000000
vn 0.000000 1.000000 0.000000
vn -1.000000 0.000000 0.000000
vn 0.000000 0.000000 -1.000000
vn 1.000000 -0.000000 0.000000
vn 0.000000 -0.000000 1.000000
usemtl None_axis_cube.png
s 1
f 1/1/1 2/2/1 3/3/1
f 1/1/1 3/3/1 4/4/1
f 5/5/2 6/6/2 7/7/2
f 5/5/2 7/7/2 8/8/2
f 1/9/3 5/10/3 8/11/3
f 1/9/3 8/11/3 2/12/3
f 2/13/4 8/14/4 7/15/4
f 2/13/4 7/15/4 3/16/4
f 3/17/5 7/18/5 6/19/5
f 3/17/5 6/19/5 4/20/5
f 5/21/6 1/22/6 4/23/6
f 5/21/6 4/23/6 6/24/6
o Cube_Cube.000
v -0.096043 0.266797 -0.711438
v -0.096043 0.266798 -1.711438
v 0.903957 0.266798 -1.711438
v 0.903957 0.266797 -0.711438
v -0.096043 1.266798 -0.711438
v 0.903957 1.266798 -0.711438
v 0.903957 1.266798 -1.711438
v -0.096043 1.266798 -1.711438
vt 0.522803 0.411549
vt 0.319587 0.411549
vt 0.319587 0.208333
vt 0.522803 0.208333
vt 0.278502 0.408298
vt 0.063246 0.408298
vt 0.063246 0.193042
vt 0.278502 0.193042
vt 0.278197 0.756570
vt 0.278197 0.973534
vt 0.061233 0.973534
vt 0.061233 0.756570
vt 0.530323 0.461942
vt 0.530323 0.687666
vt 0.304599 0.687666
vt 0.304599 0.461942
vt 0.322530 0.966729
vt 0.322530 0.752712
vt 0.536548 0.752712
vt 0.536548 0.966729
vt 0.058899 0.681508
vt 0.058899 0.476101
vt 0.264306 0.476101
vt 0.264306 0.681508
vn 0.000000 -1.000000 -0.000000
vn 0.000000 1.000000 0.000000
vn -1.000000 0.000000 0.000000
vn 0.000000 0.000000 -1.000000
vn 1.000000 -0.000000 0.000000
vn 0.000000 -0.000000 1.000000
usemtl None_axis_cube.png
s 1
f 9/25/7 10/26/7 11/27/7
f 9/25/7 11/27/7 12/28/7
f 13/29/8 14/30/8 15/31/8
f 13/29/8 15/31/8 16/32/8
f 9/33/9 13/34/9 16/35/9
f 9/33/9 16/35/9 10/36/9
f 10/37/10 16/38/10 15/39/10
f 10/37/10 15/39/10 11/40/10
f 11/41/11 15/42/11 14/43/11
f 11/41/11 14/43/11 12/44/11
f 13/45/12 9/46/12 12/47/12
f 13/45/12 12/47/12 14/48/12
o Cube_Cube.008
v -0.500000 -0.500000 0.500000
v -0.500000 -0.500000 -0.500000
v 0.500000 -0.500000 -0.500000
v 0.500000 -0.500000 0.500000
v -0.500000 0.500000 0.500000
v 0.500000 0.500000 0.500000
v 0.500000 0.500000 -0.500000
v -0.500000 0.500000 -0.500000
vt 0.522803 0.411549
vt 0.319587 0.411549
vt 0.319587 0.208333
vt 0.522803 0.208333
vt 0.278502 0.408298
vt 0.063246 0.408298
vt 0.063246 0.193042
vt 0.278502 0.193042
vt 0.278197 0.756570
vt 0.278197 0.973534
vt 0.061233 0.973534
vt 0.061233 0.756570
vt 0.530323 0.461942
vt 0.530323 0.687666
vt 0.304599 0.687666
vt 0.304599 0.461942
vt 0.322530 0.966729
vt 0.322530 0.752712
vt 0.536548 0.752712
vt 0.536548 0.966729
vt 0.058899 0.681508
vt 0.058899 0.476101
vt 0.264306 0.476101
vt 0.264306 0.681508
vn 0.000000 -1.000000 -0.000000
vn 0.000000 1.000000 0.000000
vn -1.000000 0.000000 0.000000
vn 0.000000 0.000000 -1.000000
vn 1.000000 0.000000 0.000000
vn 0.000000 -0.000000 1.000000
usemtl None_axis_cube.png
s 1
f 17/49/13 18/50/13 19/51/13
f 17/49/13 19/51/13 20/52/13
f 21/53/14 22/54/14 23/55/14
f 21/53/14 23/55/14 24/56/14
f 17/57/15 21/58/15 24/59/15
f 17/57/15 24/59/15 18/60/15
f 18/61/16 24/62/16 23/63/16
f 18/61/16 23/63/16 19/64/16
f 19/65/17 23/66/17 22/67/17
f 19/65/17 22/67/17 20/68/17
f 21/69/18 17/70/18 20/71/18
f 21/69/18 20/71/18 22/72/18
