# Blender v2.77 (sub 0) OBJ File: 'cubeStd.blend'
# www.blender.org
mtllib cubeStd.mtl
o Cube_Cube.002
v 1.000000 -1.000000 -1.000000
v 1.000000 1.000000 -1.000000
v 1.000000 -1.000000 1.000000
v 1.000000 1.000000 1.000000
v -1.000000 -1.000000 -1.000000
v -1.000000 1.000000 -1.000000
v -1.000000 -1.000000 1.000000
v -1.000000 1.000000 1.000000
vt 0.7500 0.7500
vt 0.5000 1.0000
vt 0.5000 0.7500
vt 0.7500 0.5000
vt 0.5000 0.7500
vt 0.5000 0.5000
vt 0.7500 0.7500
vt 1.0000 0.5000
vt 1.0000 0.7500
vt 0.7500 1.0000
vt 1.0000 0.7500
vt 1.0000 1.0000
vt 0.0001 0.0001
vt 0.5000 0.5000
vt 0.0001 0.5000
vt 0.5000 1.0000
vt 0.0001 0.5001
vt 0.5000 0.5001
vt 0.7500 1.0000
vt 0.7500 0.7500
vt 0.7500 0.5000
vt 0.7500 0.7500
vt 0.5000 0.0001
vt 0.0001 1.0000
vn 1.0000 0.0000 0.0000
vn 0.0000 0.0000 1.0000
vn -1.0000 0.0000 0.0000
vn 0.0000 0.0000 -1.0000
vn 0.0000 -1.0000 0.0000
vn 0.0000 1.0000 0.0000
usemtl None
s off
f 4/1/1 1/2/1 2/3/1
f 8/4/2 3/5/2 4/6/2
f 6/7/3 7/8/3 8/9/3
f 2/10/4 5/11/4 6/12/4
f 3/13/5 5/14/5 1/15/5
f 8/16/6 2/17/6 6/18/6
f 4/1/1 3/19/1 1/2/1
f 8/4/2 7/20/2 3/5/2
f 6/7/3 5/21/3 7/8/3
f 2/10/4 1/22/4 5/11/4
f 3/13/5 7/23/5 5/14/5
f 8/16/6 4/24/6 2/17/6
